# xmcd
#
# Track frame offsets:
#	150
#	8913
#	19394
#	31916
#	45948
#	58060
#	66878
#	76501
#	89031
#	97994
#	108694
#	122351
#	130671
#	143119
#
# Disc length: 2174 seconds
#
# Revision: 1
# Processed by: cddbd v1.4b41PL2 Copyright (c) Steve Scherf et al.
# Submitted via: audiograbber 1.80
#
DISCID=ae087c0e
DTITLE=Myszkowski Krzysztof - Pociagi Parowe
DYEAR=1900
DGENRE=
TTITLE0=U babci
TTITLE1=Kranowa
TTITLE2=Science fiction
TTITLE3=Walc nad Missisipi
TTITLE4=Jakos tak sie stalo
TTITLE5=Twoj list
TTITLE6=Skonczonosc
TTITLE7=Z dziennika I
TTITLE8=Piosenka
TTITLE9=Z dziennika II
TTITLE10=Ostatni taniec z podkowami
TTITLE11=Krakowskie przedswity
TTITLE12=Za gora
TTITLE13=Pociagi parowe
EXTD=
EXTT0=
EXTT1=
EXTT2=
EXTT3=
EXTT4=
EXTT5=
EXTT6=
EXTT7=
EXTT8=
EXTT9=
EXTT10=
EXTT11=
EXTT12=
EXTT13=
PLAYORDER=
